<svg width="90" height="73" viewBox="0 0 90 73" fill="none" xmlns="http://www.w3.org/2000/svg">
<path d="M45 72.5C54.5478 72.5 63.7045 68.7072 70.4558 61.9558C77.2072 55.2045 81 46.0478 81 36.5C81 26.9522 77.2072 17.7955 70.4558 11.0442C63.7045 4.29285 54.5478 0.5 45 0.5C35.4522 0.5 26.2955 4.29285 19.5442 11.0442C12.7928 17.7955 9 26.9522 9 36.5C9 46.0478 12.7928 55.2045 19.5442 61.9558C26.2955 68.7072 35.4522 72.5 45 72.5Z" fill="#FFC25B"/>
<path d="M56.3359 22.75C57.5805 22.75 58.5859 23.7555 58.5859 25V47.5C58.5859 48.7445 57.5805 49.75 56.3359 49.75H33.8359C32.5914 49.75 31.5859 48.7445 31.5859 47.5V25C31.5859 23.7555 32.5914 22.75 33.8359 22.75H56.3359ZM33.8359 20.5C31.3539 20.5 29.3359 22.518 29.3359 25V47.5C29.3359 49.982 31.3539 52 33.8359 52H56.3359C58.818 52 60.8359 49.982 60.8359 47.5V25C60.8359 22.518 58.818 20.5 56.3359 20.5H33.8359ZM35.2352 28.7688C34.8273 29.2398 34.8836 29.95 35.3547 30.3578L42.2312 36.25L35.3547 42.1492C34.8836 42.557 34.8273 43.2602 35.2352 43.7383C35.643 44.2164 36.3531 44.2656 36.8242 43.8578L44.6992 37.1078C44.9453 36.8969 45.093 36.5805 45.093 36.257C45.093 35.9336 44.9523 35.6172 44.6992 35.4062L36.8242 28.6562C36.3531 28.2484 35.643 28.3047 35.2352 28.7758V28.7688ZM43.9609 43C43.3422 43 42.8359 43.5063 42.8359 44.125C42.8359 44.7437 43.3422 45.25 43.9609 45.25H55.2109C55.8297 45.25 56.3359 44.7437 56.3359 44.125C56.3359 43.5063 55.8297 43 55.2109 43H43.9609Z" fill="white"/>
</svg>
