<svg width="91" height="72" viewBox="0 0 91 72" fill="none" xmlns="http://www.w3.org/2000/svg">
<path d="M45.165 72C54.7128 72 63.8695 68.2072 70.6208 61.4558C77.3721 54.7045 81.165 45.5478 81.165 36C81.165 26.4522 77.3721 17.2955 70.6208 10.5442C63.8695 3.79285 54.7128 0 45.165 0C35.6172 0 26.4604 3.79285 19.7091 10.5442C12.9578 17.2955 9.16498 26.4522 9.16498 36C9.16498 45.5478 12.9578 54.7045 19.7091 61.4558C26.4604 68.2072 35.6172 72 45.165 72Z" fill="#FFC25B"/>
<g clip-path="url(#clip0_3_181)">
<path d="M45.165 26.5C49.3133 26.5 52.8916 29.445 53.6991 33.5142L54.1741 35.8892L56.5966 36.0634C57.7869 36.1434 58.9026 36.6714 59.7193 37.5409C60.536 38.4105 60.993 39.5571 60.9983 40.75C60.9983 43.3625 58.8608 45.5 56.2483 45.5H35.665C32.1658 45.5 29.3316 42.6659 29.3316 39.1667C29.3316 35.9209 31.7541 33.2134 34.9683 32.8809L36.6625 32.7067L37.4541 31.2025C38.1823 29.7851 39.2874 28.5961 40.6479 27.7664C42.0084 26.9367 43.5715 26.4985 45.165 26.5ZM45.165 23.3334C40.5891 23.3334 36.615 25.93 34.6358 29.73C32.3087 29.9815 30.1566 31.0841 28.593 32.826C27.0294 34.5678 26.1647 36.826 26.165 39.1667C26.165 44.4075 30.4241 48.6667 35.665 48.6667H56.2483C60.6183 48.6667 64.165 45.12 64.165 40.75C64.165 36.57 60.9191 33.1817 56.8025 32.8967C56.2706 30.2014 54.8195 27.7744 52.697 26.0302C50.5745 24.286 47.9122 23.3328 45.165 23.3334Z" fill="white"/>
</g>
<defs>
<clipPath id="clip0_3_181">
<rect width="38" height="38" fill="white" transform="translate(26.165 17)"/>
</clipPath>
</defs>
</svg>
