<svg width="90" height="73" viewBox="0 0 90 73" fill="none" xmlns="http://www.w3.org/2000/svg">
<path d="M45.3359 72.5C54.8837 72.5 64.0405 68.7072 70.7918 61.9558C77.5431 55.2045 81.3359 46.0478 81.3359 36.5C81.3359 26.9522 77.5431 17.7955 70.7918 11.0442C64.0405 4.29285 54.8837 0.5 45.3359 0.5C35.7881 0.5 26.6314 4.29285 19.8801 11.0442C13.1288 17.7955 9.33594 26.9522 9.33594 36.5C9.33594 46.0478 13.1288 55.2045 19.8801 61.9558C26.6314 68.7072 35.7881 72.5 45.3359 72.5Z" fill="#FFC25B"/>
<path d="M48.1667 32.25H41.8334C41.4134 32.25 41.0107 32.4168 40.7138 32.7137C40.4168 33.0106 40.25 33.4134 40.25 33.8333V40.1666C40.25 40.5866 40.4168 40.9893 40.7138 41.2862C41.0107 41.5831 41.4134 41.75 41.8334 41.75H48.1667C48.5866 41.75 48.9893 41.5831 49.2863 41.2862C49.5832 40.9893 49.75 40.5866 49.75 40.1666V33.8333C49.75 33.4134 49.5832 33.0106 49.2863 32.7137C48.9893 32.4168 48.5866 32.25 48.1667 32.25ZM46.5834 38.5833H43.4167V35.4166H46.5834V38.5833ZM59.25 38.5833C59.6699 38.5833 60.0727 38.4165 60.3696 38.1195C60.6665 37.8226 60.8334 37.4199 60.8334 37C60.8334 36.58 60.6665 36.1773 60.3696 35.8804C60.0727 35.5834 59.6699 35.4166 59.25 35.4166H56.0834V32.25H59.25C59.6699 32.25 60.0727 32.0831 60.3696 31.7862C60.6665 31.4893 60.8334 31.0866 60.8334 30.6666C60.8334 30.2467 60.6665 29.844 60.3696 29.547C60.0727 29.2501 59.6699 29.0833 59.25 29.0833H55.7984C55.5619 28.4192 55.1807 27.8161 54.6823 27.3177C54.1838 26.8193 53.5807 26.438 52.9167 26.2016V22.75C52.9167 22.33 52.7499 21.9273 52.4529 21.6304C52.156 21.3334 51.7533 21.1666 51.3334 21.1666C50.9134 21.1666 50.5107 21.3334 50.2138 21.6304C49.9168 21.9273 49.75 22.33 49.75 22.75V25.9166H46.5834V22.75C46.5834 22.33 46.4165 21.9273 46.1196 21.6304C45.8227 21.3334 45.4199 21.1666 45 21.1666C44.5801 21.1666 44.1774 21.3334 43.8804 21.6304C43.5835 21.9273 43.4167 22.33 43.4167 22.75V25.9166H40.25V22.75C40.25 22.33 40.0832 21.9273 39.7863 21.6304C39.4893 21.3334 39.0866 21.1666 38.6667 21.1666C38.2468 21.1666 37.844 21.3334 37.5471 21.6304C37.2502 21.9273 37.0834 22.33 37.0834 22.75V26.2016C36.4193 26.438 35.8162 26.8193 35.3178 27.3177C34.8194 27.8161 34.4381 28.4192 34.2017 29.0833H30.75C30.3301 29.0833 29.9274 29.2501 29.6304 29.547C29.3335 29.844 29.1667 30.2467 29.1667 30.6666C29.1667 31.0866 29.3335 31.4893 29.6304 31.7862C29.9274 32.0831 30.3301 32.25 30.75 32.25H33.9167V35.4166H30.75C30.3301 35.4166 29.9274 35.5834 29.6304 35.8804C29.3335 36.1773 29.1667 36.58 29.1667 37C29.1667 37.4199 29.3335 37.8226 29.6304 38.1195C29.9274 38.4165 30.3301 38.5833 30.75 38.5833H33.9167V41.75H30.75C30.3301 41.75 29.9274 41.9168 29.6304 42.2137C29.3335 42.5106 29.1667 42.9134 29.1667 43.3333C29.1667 43.7532 29.3335 44.1559 29.6304 44.4529C29.9274 44.7498 30.3301 44.9166 30.75 44.9166H34.2017C34.4381 45.5807 34.8194 46.1838 35.3178 46.6822C35.8162 47.1806 36.4193 47.5619 37.0834 47.7983V51.25C37.0834 51.6699 37.2502 52.0726 37.5471 52.3695C37.844 52.6665 38.2468 52.8333 38.6667 52.8333C39.0866 52.8333 39.4893 52.6665 39.7863 52.3695C40.0832 52.0726 40.25 51.6699 40.25 51.25V48.0833H43.4167V51.25C43.4167 51.6699 43.5835 52.0726 43.8804 52.3695C44.1774 52.6665 44.5801 52.8333 45 52.8333C45.4199 52.8333 45.8227 52.6665 46.1196 52.3695C46.4165 52.0726 46.5834 51.6699 46.5834 51.25V48.0833H49.75V51.25C49.75 51.6699 49.9168 52.0726 50.2138 52.3695C50.5107 52.6665 50.9134 52.8333 51.3334 52.8333C51.7533 52.8333 52.156 52.6665 52.4529 52.3695C52.7499 52.0726 52.9167 51.6699 52.9167 51.25V47.7983C53.5807 47.5619 54.1838 47.1806 54.6823 46.6822C55.1807 46.1838 55.5619 45.5807 55.7984 44.9166H59.25C59.6699 44.9166 60.0727 44.7498 60.3696 44.4529C60.6665 44.1559 60.8334 43.7532 60.8334 43.3333C60.8334 42.9134 60.6665 42.5106 60.3696 42.2137C60.0727 41.9168 59.6699 41.75 59.25 41.75H56.0834V38.5833H59.25ZM52.9167 43.3333C52.9167 43.7532 52.7499 44.1559 52.4529 44.4529C52.156 44.7498 51.7533 44.9166 51.3334 44.9166H38.6667C38.2468 44.9166 37.844 44.7498 37.5471 44.4529C37.2502 44.1559 37.0834 43.7532 37.0834 43.3333V30.6666C37.0834 30.2467 37.2502 29.844 37.5471 29.547C37.844 29.2501 38.2468 29.0833 38.6667 29.0833H51.3334C51.7533 29.0833 52.156 29.2501 52.4529 29.547C52.7499 29.844 52.9167 30.2467 52.9167 30.6666V43.3333Z" fill="white"/>
</svg>
