<svg width="91" height="72" viewBox="0 0 91 72" fill="none" xmlns="http://www.w3.org/2000/svg">
<path d="M45.665 72C55.2128 72 64.3695 68.2072 71.1208 61.4558C77.8721 54.7045 81.665 45.5478 81.665 36C81.665 26.4522 77.8721 17.2955 71.1208 10.5442C64.3695 3.79285 55.2128 0 45.665 0C36.1172 0 26.9604 3.79285 20.2091 10.5442C13.4578 17.2955 9.66498 26.4522 9.66498 36C9.66498 45.5478 13.4578 54.7045 20.2091 61.4558C26.9604 68.2072 36.1172 72 45.665 72Z" fill="#FFC25B"/>
<path d="M46 19.75C37.5891 19.75 31 23.5938 31 28.5V43.5C31 48.4062 37.5891 52.25 46 52.25C54.4109 52.25 61 48.4062 61 43.5V28.5C61 23.5938 54.4109 19.75 46 19.75ZM58.5 36C58.5 37.5031 57.2687 39.0359 55.1234 40.2062C52.7078 41.5234 49.4672 42.25 46 42.25C42.5328 42.25 39.2922 41.5234 36.8766 40.2062C34.7313 39.0359 33.5 37.5031 33.5 36V33.4C36.1656 35.7438 40.7234 37.25 46 37.25C51.2766 37.25 55.8344 35.7375 58.5 33.4V36ZM36.8766 24.2938C39.2922 22.9766 42.5328 22.25 46 22.25C49.4672 22.25 52.7078 22.9766 55.1234 24.2938C57.2687 25.4641 58.5 26.9969 58.5 28.5C58.5 30.0031 57.2687 31.5359 55.1234 32.7062C52.7078 34.0234 49.4672 34.75 46 34.75C42.5328 34.75 39.2922 34.0234 36.8766 32.7062C34.7313 31.5359 33.5 30.0031 33.5 28.5C33.5 26.9969 34.7313 25.4641 36.8766 24.2938ZM55.1234 47.7062C52.7078 49.0234 49.4672 49.75 46 49.75C42.5328 49.75 39.2922 49.0234 36.8766 47.7062C34.7313 46.5359 33.5 45.0031 33.5 43.5V40.9C36.1656 43.2438 40.7234 44.75 46 44.75C51.2766 44.75 55.8344 43.2375 58.5 40.9V43.5C58.5 45.0031 57.2687 46.5359 55.1234 47.7062Z" fill="white"/>
</svg>
