<svg width="91" height="72" viewBox="0 0 91 72" fill="none" xmlns="http://www.w3.org/2000/svg">
<path d="M45.165 72C54.7128 72 63.8695 68.2072 70.6208 61.4558C77.3721 54.7045 81.165 45.5478 81.165 36C81.165 26.4522 77.3721 17.2955 70.6208 10.5442C63.8695 3.79285 54.7128 0 45.165 0C35.6172 0 26.4605 3.79285 19.7091 10.5442C12.9578 17.2955 9.16499 26.4522 9.16499 36C9.16499 45.5478 12.9578 54.7045 19.7091 61.4558C26.4605 68.2072 35.6172 72 45.165 72Z" fill="#FFC25B"/>
<path d="M57.5 22.25H32.5C31.5054 22.25 30.5516 22.6451 29.8483 23.3483C29.1451 24.0516 28.75 25.0054 28.75 26V43.5C28.75 44.4946 29.1451 45.4484 29.8483 46.1517C30.5516 46.8549 31.5054 47.25 32.5 47.25H57.5C58.4946 47.25 59.4484 46.8549 60.1517 46.1517C60.8549 45.4484 61.25 44.4946 61.25 43.5V26C61.25 25.0054 60.8549 24.0516 60.1517 23.3483C59.4484 22.6451 58.4946 22.25 57.5 22.25ZM58.75 43.5C58.75 43.8315 58.6183 44.1495 58.3839 44.3839C58.1495 44.6183 57.8315 44.75 57.5 44.75H32.5C32.1685 44.75 31.8505 44.6183 31.6161 44.3839C31.3817 44.1495 31.25 43.8315 31.25 43.5V26C31.25 25.6685 31.3817 25.3505 31.6161 25.1161C31.8505 24.8817 32.1685 24.75 32.5 24.75H57.5C57.8315 24.75 58.1495 24.8817 58.3839 25.1161C58.6183 25.3505 58.75 25.6685 58.75 26V43.5ZM51.25 51C51.25 51.3315 51.1183 51.6495 50.8839 51.8839C50.6495 52.1183 50.3315 52.25 50 52.25H40C39.6685 52.25 39.3505 52.1183 39.1161 51.8839C38.8817 51.6495 38.75 51.3315 38.75 51C38.75 50.6685 38.8817 50.3505 39.1161 50.1161C39.3505 49.8817 39.6685 49.75 40 49.75H50C50.3315 49.75 50.6495 49.8817 50.8839 50.1161C51.1183 50.3505 51.25 50.6685 51.25 51Z" fill="white"/>
</svg>
