<svg width="90" height="73" viewBox="0 0 90 73" fill="none" xmlns="http://www.w3.org/2000/svg">
<path d="M45 72.5C54.5478 72.5 63.7045 68.7072 70.4558 61.9558C77.2072 55.2045 81 46.0478 81 36.5C81 26.9522 77.2072 17.7955 70.4558 11.0442C63.7045 4.29285 54.5478 0.5 45 0.5C35.4522 0.5 26.2955 4.29285 19.5442 11.0442C12.7928 17.7955 9 26.9522 9 36.5C9 46.0478 12.7928 55.2045 19.5442 61.9558C26.2955 68.7072 35.4522 72.5 45 72.5Z" fill="#FFC25B"/>
<path d="M29.5625 24.625V34.125H36.2541L40.25 41.1408V49.5625H49.75V40.0625H42.3673L38.9889 34.125H39.0625V30.5625H50.9375V34.125H60.4375V24.625H50.9375V28.1875H39.0625V24.625H29.5625ZM31.9375 27H36.6875V31.75H31.9375V27ZM53.3125 27H58.0625V31.75H53.3125V27ZM43.1214 42.4375H47.375V47.1875H42.625V42.7201L43.1214 42.4375Z" fill="white"/>
</svg>
